<mxfile host="65bd71144e">
    <diagram name="Page-1" id="5ZvDu0B-BvRj65fo0EQc">
        <mxGraphModel dx="5758" dy="1968" grid="1" gridSize="10" guides="1" tooltips="1" connect="1" arrows="1" fold="1" page="1" pageScale="1" pageWidth="1850" pageHeight="1850" math="0" shadow="0">
            <root>
                <mxCell id="0"/>
                <mxCell id="1" parent="0"/>
                <mxCell id="beYOVeJ275iZk2N2ftyy-2" value="" style="edgeStyle=orthogonalEdgeStyle;rounded=0;orthogonalLoop=1;jettySize=auto;html=1;strokeWidth=6;" parent="1" source="oFZK95akWB134CkeK_YD-35" edge="1">
                    <mxGeometry relative="1" as="geometry">
                        <mxPoint x="1464.5" y="755" as="targetPoint"/>
                    </mxGeometry>
                </mxCell>
                <mxCell id="beYOVeJ275iZk2N2ftyy-3" value="" style="edgeStyle=orthogonalEdgeStyle;rounded=0;orthogonalLoop=1;jettySize=auto;html=1;strokeWidth=6;entryX=1;entryY=0.5;entryDx=0;entryDy=0;" parent="1" source="oFZK95akWB134CkeK_YD-35" target="oFZK95akWB134CkeK_YD-6" edge="1">
                    <mxGeometry relative="1" as="geometry">
                        <mxPoint x="1410.000000000001" y="1125" as="targetPoint"/>
                        <Array as="points">
                            <mxPoint x="1460" y="1180"/>
                            <mxPoint x="120" y="1180"/>
                        </Array>
                    </mxGeometry>
                </mxCell>
                <mxCell id="oFZK95akWB134CkeK_YD-35" value="" style="rounded=0;whiteSpace=wrap;html=1;dashed=1;strokeWidth=3;" parent="1" vertex="1">
                    <mxGeometry x="1169.5" y="785" width="590" height="360" as="geometry"/>
                </mxCell>
                <mxCell id="oFZK95akWB134CkeK_YD-6" value="" style="rounded=0;whiteSpace=wrap;html=1;fillColor=#c4e9e8;dashed=1;strokeWidth=3;direction=south;" parent="1" vertex="1">
                    <mxGeometry x="35" y="760" width="170" height="385" as="geometry"/>
                </mxCell>
                <mxCell id="oFZK95akWB134CkeK_YD-2" value="&lt;b&gt;&lt;font data-font-src=&quot;https://fonts.google.com/specimen/Roboto&quot; face=&quot;Roboto&quot; style=&quot;font-size: 20px;&quot;&gt;Upload Portal&lt;/font&gt;&lt;/b&gt;" style="shape=hexagon;perimeter=hexagonPerimeter2;whiteSpace=wrap;html=1;fixedSize=1;dashed=1;strokeWidth=3;fillColor=#dfd13a;" parent="1" vertex="1">
                    <mxGeometry x="450" y="820" width="255" height="155" as="geometry"/>
                </mxCell>
                <mxCell id="oFZK95akWB134CkeK_YD-3" value="&lt;font style=&quot;font-size: 18px;&quot; data-font-src=&quot;https://fonts.google.com/specimen/Roboto&quot; face=&quot;Roboto&quot;&gt;Phenotypic Data in a fixed template&lt;/font&gt;" style="rounded=1;whiteSpace=wrap;html=1;dashed=1;dashPattern=1 1;strokeWidth=3;direction=south;" parent="1" vertex="1">
                    <mxGeometry x="75" y="965" width="90" height="160" as="geometry"/>
                </mxCell>
                <mxCell id="oFZK95akWB134CkeK_YD-4" value="&lt;font style=&quot;font-size: 18px;&quot; data-font-src=&quot;https://fonts.google.com/specimen/Roboto&quot; face=&quot;Roboto&quot;&gt;Genotypic Data as SNP chip arrays&lt;/font&gt;" style="rounded=1;whiteSpace=wrap;html=1;dashed=1;dashPattern=1 1;strokeWidth=3;direction=south;" parent="1" vertex="1">
                    <mxGeometry x="75" y="785" width="90" height="160" as="geometry"/>
                </mxCell>
                <mxCell id="oFZK95akWB134CkeK_YD-7" value="&lt;font data-font-src=&quot;https://fonts.google.com/specimen/Roboto&quot; face=&quot;Roboto&quot; style=&quot;font-size: 20px;&quot;&gt;DATA COLLECTION FROM PROJECT PARTNERS&lt;/font&gt;" style="text;html=1;strokeColor=none;fillColor=none;align=center;verticalAlign=middle;whiteSpace=wrap;rounded=0;rotation=0;fontSize=21;fontStyle=1" parent="1" vertex="1">
                    <mxGeometry x="-40" y="710" width="320" height="30" as="geometry"/>
                </mxCell>
                <mxCell id="oFZK95akWB134CkeK_YD-9" value="" style="endArrow=classic;html=1;rounded=0;strokeWidth=6;" parent="1" edge="1">
                    <mxGeometry relative="1" as="geometry">
                        <mxPoint x="430" y="897" as="sourcePoint"/>
                        <mxPoint x="230" y="896.67" as="targetPoint"/>
                    </mxGeometry>
                </mxCell>
                <mxCell id="oFZK95akWB134CkeK_YD-11" value="&lt;font style=&quot;font-size: 18px;&quot; data-font-src=&quot;https://fonts.google.com/specimen/Roboto&quot; face=&quot;Roboto&quot;&gt;Upload&lt;/font&gt;" style="edgeLabel;html=1;align=center;verticalAlign=middle;resizable=0;points=[];" parent="oFZK95akWB134CkeK_YD-9" vertex="1" connectable="0">
                    <mxGeometry x="-0.06" y="-1" relative="1" as="geometry">
                        <mxPoint x="-5" y="-56" as="offset"/>
                    </mxGeometry>
                </mxCell>
                <mxCell id="oFZK95akWB134CkeK_YD-12" value="" style="endArrow=classic;html=1;rounded=0;entryX=0.375;entryY=1;entryDx=0;entryDy=0;fontSize=16;strokeWidth=6;" parent="1" edge="1">
                    <mxGeometry relative="1" as="geometry">
                        <mxPoint x="240" y="865" as="sourcePoint"/>
                        <mxPoint x="430" y="864.5099999999999" as="targetPoint"/>
                        <Array as="points"/>
                    </mxGeometry>
                </mxCell>
                <mxCell id="oFZK95akWB134CkeK_YD-14" value="&lt;font style=&quot;font-size: 18px;&quot; data-font-src=&quot;https://fonts.google.com/specimen/Roboto&quot; face=&quot;Roboto&quot;&gt;Feedback&amp;nbsp; on disagrements &lt;br&gt;with the template&lt;/font&gt;" style="edgeLabel;html=1;align=center;verticalAlign=middle;resizable=0;points=[];" parent="oFZK95akWB134CkeK_YD-12" vertex="1" connectable="0">
                    <mxGeometry x="-0.06" y="-1" relative="1" as="geometry">
                        <mxPoint y="79" as="offset"/>
                    </mxGeometry>
                </mxCell>
                <mxCell id="oFZK95akWB134CkeK_YD-21" value="" style="whiteSpace=wrap;html=1;aspect=fixed;dashed=1;strokeWidth=3;" parent="1" vertex="1">
                    <mxGeometry x="790" y="800" width="300" height="300" as="geometry"/>
                </mxCell>
                <mxCell id="oFZK95akWB134CkeK_YD-22" value="&lt;font style=&quot;font-size: 18px;&quot; data-font-src=&quot;https://fonts.google.com/specimen/Roboto&quot; face=&quot;Roboto&quot;&gt;Semi-Automated&lt;br&gt;Cleaning,&lt;br&gt;Integration,&lt;br style=&quot;border-color: var(--border-color);&quot;&gt;Transformation and&lt;br style=&quot;border-color: var(--border-color);&quot;&gt;Reduction&lt;br&gt;&lt;/font&gt;" style="shape=parallelogram;perimeter=parallelogramPerimeter;whiteSpace=wrap;html=1;fixedSize=1;dashed=1;dashPattern=1 1;strokeWidth=3;fillColor=#f8cecc;strokeColor=#b85450;" parent="1" vertex="1">
                    <mxGeometry x="838.25" y="867.5" width="204.5" height="162.5" as="geometry"/>
                </mxCell>
                <mxCell id="oFZK95akWB134CkeK_YD-25" value="&lt;font data-font-src=&quot;https://fonts.google.com/specimen/Roboto&quot; face=&quot;Roboto&quot; style=&quot;font-size: 20px;&quot;&gt;&lt;b style=&quot;&quot;&gt;DATA PROCESSING&lt;/b&gt;&lt;/font&gt;" style="text;html=1;strokeColor=none;fillColor=none;align=center;verticalAlign=middle;whiteSpace=wrap;rounded=0;rotation=90;" parent="1" vertex="1">
                    <mxGeometry x="955" y="930" width="230" height="30" as="geometry"/>
                </mxCell>
                <mxCell id="oFZK95akWB134CkeK_YD-26" value="" style="endArrow=classic;html=1;rounded=0;exitX=0.5;exitY=1;exitDx=0;exitDy=0;strokeWidth=6;entryX=0.908;entryY=-0.043;entryDx=0;entryDy=0;entryPerimeter=0;" parent="1" source="oFZK95akWB134CkeK_YD-21" edge="1" target="oFZK95akWB134CkeK_YD-6">
                    <mxGeometry width="50" height="50" relative="1" as="geometry">
                        <mxPoint x="300" y="550" as="sourcePoint"/>
                        <mxPoint x="220" y="1060" as="targetPoint"/>
                        <Array as="points">
                            <mxPoint x="940" y="1110"/>
                        </Array>
                    </mxGeometry>
                </mxCell>
                <mxCell id="oFZK95akWB134CkeK_YD-27" value="" style="endArrow=classic;html=1;rounded=0;strokeWidth=6;" parent="1" edge="1">
                    <mxGeometry width="50" height="50" relative="1" as="geometry">
                        <mxPoint x="710" y="884.17" as="sourcePoint"/>
                        <mxPoint x="780" y="884.17" as="targetPoint"/>
                    </mxGeometry>
                </mxCell>
                <mxCell id="oFZK95akWB134CkeK_YD-28" value="&lt;font style=&quot;font-size: 18px;&quot; data-font-src=&quot;https://fonts.google.com/specimen/Roboto&quot; face=&quot;Roboto&quot;&gt;Preliminary report on the data quality to the project partners&lt;/font&gt;" style="text;html=1;strokeColor=none;fillColor=none;align=center;verticalAlign=middle;whiteSpace=wrap;rounded=0;" parent="1" vertex="1">
                    <mxGeometry x="290" y="1080" width="480" height="20" as="geometry"/>
                </mxCell>
                <mxCell id="beYOVeJ275iZk2N2ftyy-7" value="" style="edgeStyle=orthogonalEdgeStyle;rounded=0;orthogonalLoop=1;jettySize=auto;html=1;strokeWidth=6;" parent="1" source="oFZK95akWB134CkeK_YD-29" target="oFZK95akWB134CkeK_YD-32" edge="1">
                    <mxGeometry relative="1" as="geometry"/>
                </mxCell>
                <mxCell id="beYOVeJ275iZk2N2ftyy-8" value="" style="edgeStyle=orthogonalEdgeStyle;rounded=0;orthogonalLoop=1;jettySize=auto;html=1;strokeWidth=6;" parent="1" source="oFZK95akWB134CkeK_YD-29" target="oFZK95akWB134CkeK_YD-31" edge="1">
                    <mxGeometry relative="1" as="geometry"/>
                </mxCell>
                <mxCell id="oFZK95akWB134CkeK_YD-29" value="&lt;font style=&quot;font-size: 18px;&quot; data-font-src=&quot;https://fonts.google.com/specimen/Roboto&quot; face=&quot;Roboto&quot;&gt;Data Partitioning&lt;/font&gt;" style="rounded=1;whiteSpace=wrap;html=1;strokeWidth=3;" parent="1" vertex="1">
                    <mxGeometry x="1411" y="835" width="107" height="40" as="geometry"/>
                </mxCell>
                <mxCell id="oFZK95akWB134CkeK_YD-32" value="&lt;font style=&quot;font-size: 18px;&quot; data-font-src=&quot;https://fonts.google.com/specimen/Roboto&quot; face=&quot;Roboto&quot;&gt;Test Set&lt;/font&gt;" style="rounded=1;whiteSpace=wrap;html=1;strokeWidth=3;" parent="1" vertex="1">
                    <mxGeometry x="1599" y="840" width="100" height="30" as="geometry"/>
                </mxCell>
                <mxCell id="oFZK95akWB134CkeK_YD-33" value="&lt;font style=&quot;font-size: 18px;&quot; data-font-src=&quot;https://fonts.google.com/specimen/Roboto&quot; face=&quot;Roboto&quot;&gt;Model Development&lt;/font&gt;" style="rounded=1;whiteSpace=wrap;html=1;strokeWidth=3;" parent="1" vertex="1">
                    <mxGeometry x="1201.5" y="1018.75" width="155" height="57.5" as="geometry"/>
                </mxCell>
                <mxCell id="oFZK95akWB134CkeK_YD-34" value="&lt;font style=&quot;font-size: 18px;&quot; data-font-src=&quot;https://fonts.google.com/specimen/Roboto&quot; face=&quot;Roboto&quot;&gt;Model Validation&lt;/font&gt;" style="rounded=1;whiteSpace=wrap;html=1;strokeWidth=3;" parent="1" vertex="1">
                    <mxGeometry x="1574" y="1018.75" width="150" height="57.5" as="geometry"/>
                </mxCell>
                <mxCell id="oFZK95akWB134CkeK_YD-49" value="" style="endArrow=classic;html=1;rounded=0;strokeWidth=6;" parent="1" edge="1">
                    <mxGeometry width="50" height="50" relative="1" as="geometry">
                        <mxPoint x="1100" y="884.3399999999999" as="sourcePoint"/>
                        <mxPoint x="1160" y="884.3399999999999" as="targetPoint"/>
                        <Array as="points">
                            <mxPoint x="1140" y="884.17"/>
                        </Array>
                    </mxGeometry>
                </mxCell>
                <mxCell id="R-aJPsxZ6_3DjVfokjPK-3" value="&lt;font data-font-src=&quot;https://fonts.google.com/specimen/Roboto&quot; face=&quot;Roboto&quot; style=&quot;font-size: 20px;&quot;&gt;&lt;b style=&quot;&quot;&gt;DATA ANALYSIS&lt;/b&gt;&lt;/font&gt;" style="text;html=1;strokeColor=none;fillColor=none;align=center;verticalAlign=middle;whiteSpace=wrap;rounded=0;" parent="1" vertex="1">
                    <mxGeometry x="1379.5" y="945" width="170" height="30" as="geometry"/>
                </mxCell>
                <mxCell id="oFZK95akWB134CkeK_YD-31" value="&lt;font style=&quot;font-size: 18px;&quot; data-font-src=&quot;https://fonts.google.com/specimen/Roboto&quot; face=&quot;Roboto&quot;&gt;Training Set&lt;/font&gt;" style="rounded=1;whiteSpace=wrap;html=1;strokeWidth=3;" parent="1" vertex="1">
                    <mxGeometry x="1229" y="840" width="100" height="30" as="geometry"/>
                </mxCell>
                <mxCell id="beYOVeJ275iZk2N2ftyy-11" value="" style="endArrow=classic;html=1;rounded=0;entryX=0.5;entryY=0;entryDx=0;entryDy=0;exitX=0.5;exitY=1;exitDx=0;exitDy=0;strokeWidth=6;" parent="1" source="oFZK95akWB134CkeK_YD-31" target="oFZK95akWB134CkeK_YD-33" edge="1">
                    <mxGeometry width="50" height="50" relative="1" as="geometry">
                        <mxPoint x="1229" y="950" as="sourcePoint"/>
                        <mxPoint x="1279" y="900" as="targetPoint"/>
                    </mxGeometry>
                </mxCell>
                <mxCell id="beYOVeJ275iZk2N2ftyy-12" value="" style="endArrow=classic;html=1;rounded=0;entryX=0.5;entryY=0;entryDx=0;entryDy=0;exitX=0.5;exitY=1;exitDx=0;exitDy=0;strokeWidth=6;" parent="1" edge="1">
                    <mxGeometry width="50" height="50" relative="1" as="geometry">
                        <mxPoint x="1648.5" y="875" as="sourcePoint"/>
                        <mxPoint x="1648.5" y="1024" as="targetPoint"/>
                    </mxGeometry>
                </mxCell>
                <mxCell id="beYOVeJ275iZk2N2ftyy-13" value="" style="endArrow=classic;startArrow=classic;html=1;rounded=0;entryX=0;entryY=0.5;entryDx=0;entryDy=0;exitX=1;exitY=0.5;exitDx=0;exitDy=0;strokeWidth=6;" parent="1" source="oFZK95akWB134CkeK_YD-33" target="oFZK95akWB134CkeK_YD-34" edge="1">
                    <mxGeometry width="50" height="50" relative="1" as="geometry">
                        <mxPoint x="1439" y="1055" as="sourcePoint"/>
                        <mxPoint x="1489" y="1005" as="targetPoint"/>
                    </mxGeometry>
                </mxCell>
                <mxCell id="4" value="&lt;span style=&quot;color: rgb(0, 0, 0); font-family: Roboto; font-size: 18px; font-style: normal; font-variant-ligatures: normal; font-variant-caps: normal; font-weight: 400; letter-spacing: normal; orphans: 2; text-align: center; text-indent: 0px; text-transform: none; widows: 2; word-spacing: 0px; -webkit-text-stroke-width: 0px; background-color: rgb(251, 251, 251); text-decoration-thickness: initial; text-decoration-style: initial; text-decoration-color: initial; float: none; display: inline !important;&quot;&gt;Reporting Results&amp;nbsp;&lt;/span&gt;&lt;span style=&quot;color: rgb(0, 0, 0); font-family: Roboto; font-size: 18px; font-style: normal; font-variant-ligatures: normal; font-variant-caps: normal; font-weight: 400; letter-spacing: normal; orphans: 2; text-align: center; text-indent: 0px; text-transform: none; widows: 2; word-spacing: 0px; -webkit-text-stroke-width: 0px; background-color: rgb(251, 251, 251); text-decoration-thickness: initial; text-decoration-style: initial; text-decoration-color: initial; float: none; display: inline !important;&quot;&gt;to Project Partners&lt;/span&gt;" style="text;whiteSpace=wrap;html=1;" vertex="1" parent="1">
                    <mxGeometry x="290" y="1145" width="320" height="30" as="geometry"/>
                </mxCell>
                <mxCell id="9" value="&lt;font face=&quot;Roboto&quot;&gt;&lt;span style=&quot;font-size: 20px;&quot;&gt;PUBLICATIONS&lt;/span&gt;&lt;/font&gt;" style="text;html=1;strokeColor=none;fillColor=none;align=center;verticalAlign=middle;whiteSpace=wrap;rounded=0;rotation=0;fontSize=21;fontStyle=1" vertex="1" parent="1">
                    <mxGeometry x="1304.5" y="710" width="320" height="30" as="geometry"/>
                </mxCell>
            </root>
        </mxGraphModel>
    </diagram>
</mxfile>